<?xml version="1.0"?>
<svg xmlns="http://www.w3.org/2000/svg" id="Layer_3" enable-background="new 0 0 64 64" height="512px" viewBox="0 0 64 64" width="512px" class=""><g><path d="m9 31h46c4.411 0 8-3.589 8-8s-3.589-8-8-8c-.076 0-.151.014-.228.016-.906-4.01-4.491-7.016-8.772-7.016-.802 0-1.575.115-2.315.313-2.171-4.462-6.681-7.313-11.685-7.313-5.029 0-9.521 2.841-11.691 7.311-.738-.196-1.51-.311-2.309-.311-4.281 0-7.866 3.006-8.772 7.016-.077-.002-.152-.016-.228-.016-4.411 0-8 3.589-8 8s3.589 8 8 8zm0-14c0 2.039.701 4.037 1.975 5.626l1.561-1.252c-1.005-1.252-1.536-2.765-1.536-4.374 0-3.859 3.141-7 7-7s7 3.141 7 7c0 1.609-.531 3.122-1.535 4.374l1.561 1.252c1.273-1.589 1.974-3.587 1.974-5.626 0-3.453-1.957-6.454-4.817-7.962 1.863-3.696 5.618-6.038 9.817-6.038 4.179 0 7.953 2.347 9.817 6.038-2.86 1.508-4.817 4.509-4.817 7.962h2c0-3.859 3.141-7 7-7s7 3.141 7 7c0 1.609-.531 3.122-1.535 4.374l1.561 1.252c1.273-1.589 1.974-3.587 1.974-5.626 3.309 0 6 2.691 6 6s-2.691 6-6 6h-46c-3.309 0-6-2.691-6-6s2.691-6 6-6z" data-original="#000000" class="active-path" data-old_color="#000000" fill="#F2EDED"/><path d="m23.143 33.485-2.059 3.431c-.709 1.183-1.084 2.536-1.084 3.914 0 2.224 1.663 4.054 3.787 4.165.072.003.144.005.215.005 1.03 0 2-.386 2.752-1.099.792-.752 1.246-1.809 1.246-2.901v-.17c0-1.378-.375-2.731-1.084-3.914l-2.059-3.431c-.361-.601-1.353-.601-1.714 0zm2.857 7.345v.17c0 .554-.222 1.068-.623 1.45s-.924.578-1.485.547c-1.043-.055-1.892-1.026-1.892-2.167 0-1.016.276-2.014.799-2.885l1.201-2.002 1.201 2.002c.523.871.799 1.869.799 2.885z" data-original="#000000" class="active-path" data-old_color="#000000" fill="#F2EDED"/><path d="m36 47.83c0-1.378-.375-2.731-1.084-3.914l-2.059-3.431c-.361-.602-1.354-.602-1.715 0l-2.059 3.431c-.708 1.183-1.083 2.536-1.083 3.914 0 2.224 1.663 4.054 3.787 4.165.072.003.144.005.215.005 1.03 0 2-.386 2.752-1.099.792-.752 1.246-1.809 1.246-2.901zm-2 .17c0 .554-.222 1.068-.623 1.45-.402.382-.922.578-1.485.547-1.043-.055-1.892-1.026-1.892-2.167 0-1.016.276-2.014.799-2.885l1.201-2.002 1.201 2.002c.523.871.799 1.869.799 2.885z" data-original="#000000" class="active-path" data-old_color="#000000" fill="#F2EDED"/><path d="m24.857 47.485c-.361-.602-1.354-.602-1.715 0l-2.059 3.431c-.708 1.183-1.083 2.536-1.083 3.914 0 2.224 1.663 4.054 3.787 4.165.072.003.144.005.215.005 1.03 0 2-.386 2.752-1.099.792-.752 1.246-1.809 1.246-2.901v-.17c0-1.378-.375-2.731-1.084-3.914zm1.143 7.515c0 .554-.222 1.068-.623 1.45s-.924.577-1.485.547c-1.043-.055-1.892-1.026-1.892-2.167 0-1.016.276-2.014.799-2.885l1.201-2.002 1.201 2.002c.523.871.799 1.869.799 2.885z" data-original="#000000" class="active-path" data-old_color="#000000" fill="#F2EDED"/><path d="m40.857 33.485c-.361-.602-1.354-.602-1.715 0l-2.059 3.431c-.708 1.183-1.083 2.536-1.083 3.914 0 2.224 1.663 4.054 3.787 4.165.072.003.144.005.215.005 1.03 0 2-.386 2.752-1.099.792-.752 1.246-1.809 1.246-2.901v-.17c0-1.378-.375-2.731-1.084-3.914zm1.143 7.515c0 .554-.222 1.068-.623 1.45s-.921.578-1.485.547c-1.043-.055-1.892-1.026-1.892-2.167 0-1.016.276-2.014.799-2.885l1.201-2.002 1.201 2.002c.523.871.799 1.869.799 2.885z" data-original="#000000" class="active-path" data-old_color="#000000" fill="#F2EDED"/><path d="m40.857 47.485c-.361-.602-1.354-.602-1.715 0l-2.059 3.431c-.708 1.183-1.083 2.536-1.083 3.914 0 2.224 1.663 4.054 3.787 4.165.072.003.144.005.215.005 1.03 0 2-.386 2.752-1.099.792-.752 1.246-1.809 1.246-2.901v-.17c0-1.378-.375-2.731-1.084-3.914zm1.143 7.515c0 .554-.222 1.068-.623 1.45s-.921.577-1.485.547c-1.043-.055-1.892-1.026-1.892-2.167 0-1.016.276-2.014.799-2.885l1.201-2.002 1.201 2.002c.523.871.799 1.869.799 2.885z" data-original="#000000" class="active-path" data-old_color="#000000" fill="#F2EDED"/><path d="m17.707 50.707-1.414-1.414-3.707 3.707h-1.586v-1.586l3.707-3.707-1.414-1.414-2.293 2.293v-3.586h-2v3.586l-2.293-2.293-1.414 1.414 3.707 3.707v1.586h-1.586l-3.707-3.707-1.414 1.414 2.293 2.293h-3.586v2h3.586l-2.293 2.293 1.414 1.414 3.707-3.707h1.586v1.586l-3.707 3.707 1.414 1.414 2.293-2.293v3.586h2v-3.586l2.293 2.293 1.414-1.414-3.707-3.707v-1.586h1.586l3.707 3.707 1.414-1.414-2.293-2.293h3.586v-2h-3.586z" data-original="#000000" class="active-path" data-old_color="#000000" fill="#F2EDED"/><path d="m61.707 38.707-1.414-1.414-3.707 3.707h-1.586v-1.586l3.707-3.707-1.414-1.414-2.293 2.293v-3.586h-2v3.586l-2.293-2.293-1.414 1.414 3.707 3.707v1.586h-1.586l-3.707-3.707-1.414 1.414 2.293 2.293h-3.586v2h3.586l-2.293 2.293 1.414 1.414 3.707-3.707h1.586v1.586l-3.707 3.707 1.414 1.414 2.293-2.293v3.586h2v-3.586l2.293 2.293 1.414-1.414-3.707-3.707v-1.586h1.586l3.707 3.707 1.414-1.414-2.293-2.293h3.586v-2h-3.586z" data-original="#000000" class="active-path" data-old_color="#000000" fill="#F2EDED"/></g> </svg>
